<?xml version="1.0" standalone="no"?>
<!DOCTYPE svg PUBLIC "-//W3C//DTD SVG 20010904//EN"
 "http://www.w3.org/TR/2001/REC-SVG-20010904/DTD/svg10.dtd">
<svg version="1.0" xmlns="http://www.w3.org/2000/svg"
 width="446.000000pt" height="261.000000pt" viewBox="0 0 446.000000 261.000000"
 preserveAspectRatio="xMidYMid meet">
<metadata>
Created by potrace 1.16, written by Peter Selinger 2001-2019
</metadata>
<g transform="translate(0.000000,261.000000) scale(0.100000,-0.100000)"
fill="#000000" stroke="none">
<path d="M1442 2283 c-67 -33 -116 -135 -116 -244 0 -112 54 -168 120 -124 24
16 25 16 15 -3 -5 -10 -17 -25 -26 -32 -43 -36 -55 -110 -20 -124 44 -16 104
56 105 126 0 46 59 61 60 16 0 -17 50 -6 78 17 l29 24 11 -24 c17 -36 56 -33
79 6 l18 30 5 -28 c8 -42 38 -42 73 -2 15 19 25 26 21 16 -8 -23 13 -47 41
-47 30 0 72 50 81 95 3 19 1 49 -5 66 -6 18 -11 45 -11 60 0 28 -14 36 -36 21
-6 -4 -24 -36 -41 -72 -16 -36 -40 -76 -51 -90 l-21 -25 0 30 c-1 26 5 56 24
143 6 26 -16 30 -36 6 -11 -14 -13 -14 -21 0 -24 42 -100 -15 -120 -90 -15
-54 -64 -107 -78 -84 -17 27 -11 61 25 134 25 50 37 91 42 137 7 76 -1 87 -45
62 -27 -15 -34 -29 -52 -101 -11 -45 -23 -110 -27 -142 -3 -33 -12 -68 -20
-78 -12 -15 -13 -14 -7 13 3 17 8 38 11 48 6 22 -31 23 -49 1 -7 -9 -26 -30
-41 -47 l-28 -30 -22 21 c-63 64 22 330 94 291 24 -12 25 -68 3 -111 -16 -31
-17 -31 -31 -12 -12 16 -15 17 -23 4 -14 -22 -12 -35 8 -53 24 -22 34 -21 65
4 54 42 57 157 4 194 -27 19 -44 19 -85 -2z"/>
<path d="M2700 2294 c-42 -12 -99 -151 -107 -259 -11 -167 96 -195 171 -46 68
134 76 311 15 311 -22 0 -59 -55 -70 -104 -13 -60 -1 -100 29 -94 14 3 16 13
14 55 -4 58 23 127 39 102 24 -38 -5 -178 -54 -264 -17 -30 -29 -40 -47 -40
-20 0 -27 7 -34 37 -13 52 9 165 45 236 37 74 37 76 -1 66z"/>
<path d="M2932 2290 c-30 -12 -48 -58 -67 -165 -8 -47 -22 -96 -30 -108 -18
-26 -20 -62 -3 -51 8 5 9 -4 5 -32 -3 -21 -9 -71 -13 -110 l-6 -72 26 5 c26 5
31 19 38 98 2 22 9 31 25 33 28 4 73 56 73 85 0 20 -2 19 -29 -7 -17 -17 -34
-25 -41 -21 -20 12 -4 118 23 162 41 66 57 135 41 177 -7 18 -10 18 -42 6z"/>
<path d="M3201 2275 c-36 -31 -57 -94 -66 -198 -7 -90 -12 -107 -31 -107 -19
0 -48 -46 -40 -65 7 -20 35 -19 57 1 16 14 20 14 48 0 43 -23 75 -20 109 9
l30 25 16 -25 c21 -31 58 -33 83 -2 25 31 67 32 82 1 15 -33 53 -32 83 4 28
33 69 32 92 -4 24 -36 69 -33 107 8 16 18 29 40 29 50 0 24 -9 23 -32 -7 -24
-31 -44 -32 -59 -3 -10 19 -9 24 6 33 43 23 65 54 65 88 0 102 -109 52 -127
-57 -5 -33 -28 -65 -38 -54 -3 3 2 34 11 71 17 68 14 97 -8 97 -25 0 -42 -45
-44 -114 -1 -45 -7 -73 -17 -83 -26 -26 -30 19 -11 107 9 44 15 83 12 85 -3 3
-16 1 -30 -4 -21 -8 -27 -20 -38 -73 -24 -126 -49 -132 -47 -10 l2 87 -28 3
c-38 5 -93 -51 -102 -104 -8 -45 -40 -84 -67 -84 -11 0 -33 7 -49 16 -22 11
-29 20 -24 32 8 21 23 109 31 185 8 83 43 111 58 47 7 -28 -15 -76 -32 -72
-18 3 -15 -55 3 -62 64 -24 104 139 45 186 -30 24 -43 23 -79 -7z"/>
<path d="M654 2226 c-249 -139 -480 -373 -585 -594 -58 -120 -72 -205 -65
-392 6 -174 21 -280 42 -293 18 -10 117 -154 146 -211 14 -27 28 -44 31 -39 4
6 -20 51 -52 100 -115 174 -149 269 -158 438 -7 131 9 230 57 354 84 216 297
446 573 615 66 41 86 56 75 56 -2 0 -31 -16 -64 -34z"/>
<path d="M685 2179 c-198 -119 -352 -253 -459 -399 -45 -60 -116 -189 -116
-208 0 -16 86 -70 146 -92 187 -68 255 -90 273 -90 11 0 26 -6 33 -14 8 -7 28
-21 46 -30 39 -20 50 -41 95 -186 56 -178 124 -300 236 -421 l59 -65 -98 4
c-57 3 -112 0 -132 -7 -60 -20 -210 -41 -295 -41 -46 0 -83 -3 -83 -7 2 -29
241 -191 394 -269 l114 -57 60 21 c36 14 82 22 120 22 109 0 280 60 333 116
21 22 21 25 6 42 -23 25 -21 30 8 25 74 -15 269 62 381 149 99 78 147 147 289
408 60 111 94 140 163 140 102 0 113 -12 187 -200 84 -212 248 -419 390 -492
226 -116 442 -98 661 57 140 100 246 245 340 468 49 117 71 141 151 167 37 11
74 24 82 27 11 4 12 1 6 -13 -4 -11 -7 -26 -8 -34 0 -8 -4 -21 -10 -28 -6 -7
-12 -61 -15 -119 -5 -117 9 -208 35 -217 22 -9 52 21 57 58 3 17 9 63 15 101
9 59 56 203 91 280 5 11 23 53 40 94 18 41 45 96 62 123 39 63 33 99 -35 213
l-51 85 -23 -22 c-21 -20 -63 -98 -63 -118 0 -4 13 -6 29 -4 29 3 29 3 20 -29
-6 -18 -11 -36 -13 -42 -7 -30 -18 -55 -24 -55 -4 0 -35 -24 -69 -53 -87 -74
-163 -93 -212 -53 -8 6 -42 54 -76 106 -103 160 -181 211 -330 218 -96 4 -137
-4 -276 -54 l-76 -27 -94 33 c-81 29 -110 34 -210 38 -111 4 -117 3 -180 -26
-74 -34 -132 -88 -220 -203 -71 -94 -107 -115 -178 -104 -55 8 -96 48 -156
149 -88 150 -203 231 -342 243 -53 4 -91 0 -176 -21 -60 -14 -121 -26 -137
-26 -15 0 -63 17 -107 38 l-79 37 23 34 c33 48 25 58 -139 177 -64 46 -192
114 -216 114 -35 0 -52 11 -83 56 -16 24 -38 44 -47 44 -9 0 -62 -28 -117 -61z
m218 -383 c-47 -25 -101 -77 -164 -156 -82 -104 -103 -115 -199 -106 -81 8
-170 32 -170 46 0 6 4 10 8 10 4 0 53 36 107 79 94 75 105 81 200 106 55 15
116 35 135 45 32 16 37 16 67 2 29 -14 31 -17 16 -26z m962 -128 c121 -60 195
-192 195 -352 0 -85 -19 -160 -68 -268 -46 -100 -56 -109 -105 -101 -45 7 -47
15 -8 30 23 8 28 16 24 31 -6 24 -45 32 -162 32 -65 0 -89 4 -103 17 -15 13
-25 15 -46 7 -30 -11 -85 3 -79 21 5 13 24 14 60 2 21 -7 32 -5 46 7 18 16 49
12 107 -16 47 -22 174 63 190 128 17 68 -26 166 -89 204 -38 24 -111 26 -147
5 -14 -8 -32 -17 -40 -20 -8 -4 -27 -28 -42 -56 -25 -44 -32 -49 -62 -49 -19
0 -38 -4 -41 -10 -10 -16 -21 -12 -33 14 -10 23 -12 24 -52 10 -31 -11 -51
-12 -78 -4 -47 13 -56 3 -56 -62 -1 -67 20 -123 40 -107 11 9 14 8 14 0 0 -8
8 -10 20 -6 11 4 20 2 20 -4 0 -19 27 0 40 27 l12 27 9 -22 c9 -24 24 -30 34
-13 10 15 35 12 35 -5 0 -8 -9 -15 -20 -15 -13 0 -24 -10 -30 -26 -13 -33 -2
-51 15 -27 7 10 16 15 20 12 9 -10 -67 -90 -81 -85 -7 3 -14 -10 -18 -35 -6
-38 -18 -47 -43 -31 -10 6 -10 16 -1 44 9 31 8 43 -10 78 -16 32 -17 40 -5 36
9 -4 13 -1 11 6 -4 12 -82 13 -120 2 -10 -3 -18 -1 -18 5 0 6 14 11 30 11 23
0 30 5 30 19 0 11 -5 23 -11 26 -6 5 -4 11 6 19 18 13 11 46 -10 46 -8 0 -17
9 -20 21 -4 11 -16 25 -28 30 -12 6 -40 33 -61 60 -31 39 -46 49 -70 50 -20 1
-24 3 -12 6 24 6 51 32 42 40 -3 3 3 18 13 32 10 14 22 36 25 49 4 12 11 22
15 22 4 0 33 25 64 55 31 30 65 55 76 55 11 0 31 5 44 11 20 9 33 6 72 -13
l48 -25 40 20 c23 11 51 20 64 21 13 0 23 3 23 6 0 4 16 4 35 2 37 -4 125 17
125 30 0 13 81 -3 125 -24z m1060 -29 c52 -14 175 -70 175 -79 0 -4 -9 -10
-20 -13 -11 -3 -20 -10 -20 -16 0 -9 5 -9 21 -1 16 9 24 8 38 -4 23 -21 30
-20 24 2 -4 15 14 28 91 67 87 45 103 49 182 53 62 3 85 1 80 -6 -4 -7 3 -14
18 -18 25 -6 112 -58 156 -93 29 -23 39 -19 19 7 -8 10 -4 8 8 -5 14 -14 20
-30 16 -40 -4 -10 -2 -14 4 -10 34 21 68 -266 44 -363 -6 -23 -10 -28 -11 -15
-1 11 -2 23 -1 28 2 13 -28 77 -43 93 -8 8 -13 21 -10 28 5 14 -20 46 -36 46
-29 0 -49 -50 -31 -78 9 -15 -32 -112 -47 -112 -25 0 -47 31 -47 67 0 32 -4
39 -23 41 -13 2 -34 -4 -48 -13 -21 -13 -25 -23 -22 -52 3 -34 0 -37 -47 -58
-27 -13 -53 -21 -58 -18 -4 3 -5 18 -2 34 5 23 1 35 -17 54 -27 29 -41 31 -59
9 -10 -12 -10 -22 -1 -46 10 -28 9 -30 -26 -45 -21 -9 -66 -15 -102 -15 -60 0
-62 -1 -25 -8 22 -5 67 -9 100 -9 57 -1 62 -3 79 -32 10 -17 16 -32 14 -33 -1
-2 -21 -7 -43 -12 -36 -9 -40 -13 -43 -43 -2 -21 -15 -45 -33 -64 -28 -28 -32
-29 -73 -18 -28 7 -54 7 -76 1 -18 -5 -38 -6 -44 -2 -12 7 -18 8 -55 10 -22 2
-23 5 -19 52 4 36 0 57 -12 78 -10 16 -21 38 -24 50 -6 19 -3 22 33 28 22 4
38 11 35 16 -4 5 -15 7 -26 5 -29 -8 -68 34 -68 72 0 19 -7 34 -18 40 -22 12
-42 -3 -42 -31 0 -22 -46 -68 -68 -68 -9 0 -32 9 -50 20 -27 17 -32 25 -30 53
2 40 -7 57 -31 57 -26 0 -43 -24 -39 -57 2 -21 -3 -30 -21 -39 -19 -10 -20
-13 -8 -20 9 -6 16 -32 19 -70 6 -68 26 -105 64 -122 22 -11 54 -64 54 -92 0
-5 -15 -10 -33 -10 -30 0 -37 6 -70 63 -21 34 -52 107 -70 162 -28 86 -32 113
-31 196 2 109 21 185 62 244 36 52 135 131 186 149 49 17 146 20 201 5z
m-1812 -341 c18 -18 27 -33 20 -35 -6 -2 -1 -14 13 -28 13 -13 24 -30 24 -37
0 -21 -30 -58 -46 -58 -8 0 -13 -4 -10 -9 9 -14 -21 -33 -67 -41 -48 -9 -77 2
-77 30 0 11 -5 20 -10 20 -6 0 -5 11 4 28 9 17 12 44 9 72 -4 36 -1 49 17 68
32 34 84 30 123 -10z m1673 -266 c7 -29 19 -69 27 -90 15 -36 9 -79 -7 -53 -4
6 -12 9 -17 6 -5 -4 -9 -1 -9 4 0 6 -8 11 -19 11 -12 0 -21 9 -24 28 -4 18
-22 37 -52 57 -35 23 -45 36 -45 58 0 26 13 36 24 18 3 -5 23 -3 43 5 57 20
66 15 79 -44z m-1606 32 c84 -12 84 -12 65 -40 -19 -30 -15 -37 22 -38 20 -1
27 -6 28 -24 1 -13 8 -27 15 -32 9 -6 13 -34 13 -93 0 -88 -7 -117 -26 -98 -7
7 -16 7 -30 -1 -14 -7 -41 -7 -94 2 l-73 13 0 36 c0 27 -3 32 -10 21 -8 -12
-10 -10 -10 8 0 13 -4 20 -10 17 -14 -9 -12 49 4 109 l13 50 59 3 c42 2 63 8
72 21 11 15 9 18 -15 24 -15 3 -38 10 -50 13 -14 4 -23 3 -23 -3 0 -6 -9 -8
-20 -5 -11 3 -20 9 -20 13 0 12 23 19 40 13 8 -2 31 -7 50 -9z m2302 -32 c4
-4 -12 -46 -35 -94 l-42 -87 -47 0 c-27 -1 -48 -5 -48 -11 0 -6 -9 -6 -25 0
-14 5 -25 6 -25 3 0 -4 -5 -2 -11 4 -9 9 -8 18 5 37 15 24 20 25 76 19 65 -6
68 -4 49 44 -7 15 -13 35 -14 43 -1 8 -5 24 -8 35 -6 19 -3 20 55 17 34 -1 66
-6 70 -10z m-1803 -9 c33 -8 34 -10 36 -65 3 -60 -12 -103 -35 -103 -8 0 -25
-19 -36 -42 -12 -23 -24 -40 -27 -37 -3 3 -33 9 -67 14 -34 5 -69 15 -79 23
-9 8 -21 13 -27 10 -16 -5 -27 28 -14 41 5 5 10 23 10 38 0 39 22 80 61 113
29 24 39 26 88 22 31 -3 71 -9 90 -14z"/>
<path d="M2124 2132 c-6 -4 -25 -38 -42 -77 -30 -70 -38 -129 -19 -152 17 -22
54 -14 81 17 31 37 42 89 27 131 -6 18 -11 45 -11 60 0 28 -14 36 -36 21z"/>
<path d="M2239 2119 c-47 -47 -66 -161 -33 -207 23 -34 68 -29 105 11 17 17
27 24 23 14 -8 -23 13 -47 41 -47 30 0 72 50 81 95 3 19 1 49 -5 66 -6 18 -11
45 -11 60 0 28 -14 36 -36 21 -6 -4 -23 -34 -38 -67 -32 -71 -72 -125 -91
-125 -8 0 -20 10 -26 22 -10 19 -9 24 6 33 42 23 65 54 65 88 0 57 -41 76 -81
36z"/>
<path d="M81 1492 c-6 -20 -15 -70 -21 -110 -20 -126 14 -312 83 -447 28 -57
113 -175 126 -175 3 0 6 24 6 54 0 30 2 53 5 51 3 -2 7 16 8 41 1 24 -2 44 -7
44 -12 0 -21 39 -10 46 16 10 9 24 -8 17 -14 -5 -16 -3 -6 7 9 10 9 19 -3 42
-8 16 -12 33 -9 38 3 6 2 10 -3 10 -11 0 -42 70 -72 165 -12 39 -25 79 -30 91
-9 22 1 46 33 82 24 26 18 36 -42 63 l-41 18 -9 -37z"/>
</g>
</svg>
